<svg version="1.1" id="Layer_1" xmlns="http://www.w3.org/2000/svg" xmlns:xlink="http://www.w3.org/1999/xlink" x="0px" y="0px"
	 width="100%" viewBox="0 0 1126 936" enable-background="new 0 0 1126 936" xml:space="preserve">
<path fill="#FFFFFF" opacity="1.000000" stroke="none" 
	d="
M1127.000000,464.000000 
	C1127.000000,621.640625 1127.000000,779.281250 1127.000000,936.960938 
	C751.754761,936.960938 376.509460,936.960938 1.000000,936.960938 
	C1.000000,630.972046 1.000000,324.943970 1.466576,18.454609 
	C6.407613,17.993315 10.882074,17.993315 15.356535,17.993315 
	C15.360145,17.328876 15.363753,16.664438 15.367362,16.000000 
	C10.578241,16.000000 5.789121,16.000000 1.000000,16.000000 
	C1.000000,11.001299 1.000000,6.002597 1.000000,1.002922 
	C376.234589,1.001948 751.469177,1.001948 1127.000000,1.001948 
	C1127.000000,154.694580 1127.000000,308.389343 1126.722412,462.363098 
	C986.905273,323.174347 847.365723,183.706635 707.826050,44.239059 
	C706.647522,43.061131 705.433899,41.916168 704.295227,40.700920 
	C702.503235,38.788273 701.049683,38.520184 698.940125,40.651897 
	C678.664551,61.140457 658.283081,81.524193 637.597046,101.990135 
	C635.156738,104.342041 633.051270,106.641739 630.687744,109.148285 
	C627.267334,112.552460 624.105042,115.749794 620.606812,118.997589 
	C614.700745,124.417511 609.144409,129.801437 603.553589,135.149338 
	C601.300476,137.304535 603.126465,138.175507 604.940979,139.414917 
	C711.475098,245.914200 817.790039,352.157654 924.104187,458.402008 
	C929.050354,463.344910 929.047485,463.349243 923.993469,468.401520 
	C818.521484,573.837402 713.049377,679.273132 607.323730,784.816162 
	C607.287292,785.689697 607.504456,786.455994 607.938599,787.476318 
	C640.040894,819.564331 671.926208,851.398254 703.911377,883.545593 
	C704.983765,883.982178 706.438171,884.576904 706.852356,884.153625 
	C710.035828,880.900635 713.017212,877.449890 716.323975,873.859375 
	C851.912964,738.428528 987.238708,603.198181 1122.575439,467.978821 
	C1123.976685,466.578827 1125.521973,465.323090 1127.000000,464.000000 
M9.168052,463.652466 
	C10.365711,464.810028 11.581222,465.949738 12.758500,467.127686 
	C103.675743,558.095581 194.574875,649.081604 285.515472,740.026184 
	C307.176422,761.688049 329.005127,783.182068 350.702728,804.807373 
	C376.066833,830.086914 401.429474,855.368530 426.631104,880.809326 
	C429.849213,884.057983 431.626007,884.193359 434.937073,880.866089 
	C465.143982,850.511841 495.474976,820.279968 525.952026,790.197083 
	C529.564209,786.631531 528.991150,784.698975 525.726562,781.448486 
	C478.750488,734.674622 431.902405,687.772278 385.002930,640.921448 
	C327.240204,583.218567 269.465393,525.527832 211.641754,467.886047 
	C210.254730,466.503387 208.229660,465.760864 206.502197,464.719757 
	C206.588852,463.874237 206.675522,463.028687 206.762177,462.183136 
	C208.405350,461.047455 210.269577,460.133118 211.660156,458.744476 
	C317.305511,353.245300 422.914124,247.709290 528.517822,142.168350 
	C529.810608,140.876312 531.002441,139.483185 532.784546,138.019699 
	C532.527222,137.343262 532.269897,136.666824 531.677612,135.417694 
	C499.310852,103.104195 466.944092,70.790695 433.518982,37.420620 
	C431.653656,39.873226 430.349640,42.070553 428.598938,43.821140 
	C290.531891,181.878403 152.430435,319.901276 14.322242,457.917358 
	C12.917431,459.321198 11.388839,460.601166 9.393487,462.058044 
	C9.262370,462.372040 9.131252,462.686066 9.168052,463.652466 
M812.107422,415.392548 
	C730.834778,334.147522 649.562134,252.902512 567.950989,171.319107 
	C469.939056,269.401550 372.455780,366.954987 275.710358,463.770050 
	C308.654907,496.787354 341.514435,529.719421 375.576752,563.856934 
	C399.288635,540.002441 423.065125,516.082947 447.653046,491.347076 
	C461.287231,505.187012 475.028290,519.135437 489.830688,534.161194 
	C500.322449,523.524597 510.543243,513.162720 521.882263,501.667145 
	C537.241272,517.183655 552.519348,532.618347 568.919556,549.186768 
	C570.003845,547.511292 570.775452,545.725159 572.051208,544.439087 
	C585.314148,531.068420 598.723328,517.842285 611.924072,504.411072 
	C614.540955,501.748505 616.200256,501.632996 618.745361,504.405121 
	C624.150085,510.292023 629.810486,515.946350 635.425964,521.636841 
	C639.344971,525.608276 643.363586,529.481506 648.169617,534.218506 
	C662.459045,519.755737 676.216736,505.831146 690.547180,491.326874 
	C714.464294,515.412903 738.141541,539.257263 762.388245,563.675232 
	C795.119507,530.076721 827.487366,496.851257 860.061035,463.414520 
	C844.848328,448.179626 828.728088,432.035858 812.107422,415.392548 
z"/>
<path fill="#8CC76B" opacity="1.000000" stroke="none" 
	d="
M1127.000000,463.750000 
	C1125.521973,465.323090 1123.976685,466.578827 1122.575439,467.978821 
	C987.238708,603.198181 851.912964,738.428528 715.979248,873.882812 
	C714.011475,875.214294 712.665955,876.340149 711.287109,877.423645 
	C708.805847,879.373230 706.304504,881.297363 703.811523,883.232178 
	C671.926208,851.398254 640.040894,819.564331 607.968262,787.055420 
	C607.713013,785.823242 607.645081,785.266052 607.577271,784.708862 
	C713.049377,679.273132 818.521484,573.837402 923.993469,468.401520 
	C929.047485,463.349243 929.050354,463.344910 924.104187,458.402008 
	C817.790039,352.157654 711.475098,245.914200 604.984131,139.028198 
	C605.909302,136.636658 606.810974,134.714386 608.149109,133.170441 
	C612.324890,128.352417 616.665771,123.677490 620.942688,118.947113 
	C624.105042,115.749794 627.267334,112.552460 631.030945,109.122406 
	C633.732178,106.572433 635.832031,104.255180 637.931885,101.937927 
	C658.283081,81.524193 678.664551,61.140457 698.940125,40.651897 
	C701.049683,38.520184 702.503235,38.788273 704.295227,40.700920 
	C705.433899,41.916168 706.647522,43.061131 707.826050,44.239059 
	C847.365723,183.706635 986.905273,323.174347 1126.722412,462.821045 
	C1127.000000,463.000000 1127.000000,463.500000 1127.000000,463.750000 
z"/>
<path fill="#DCDCDC" opacity="1.000000" stroke="none" 
	d="
M1.000000,16.333332 
	C5.789121,16.000000 10.578241,16.000000 15.367362,16.000000 
	C15.363753,16.664438 15.360145,17.328876 15.356535,17.993315 
	C10.882074,17.993315 6.407613,17.993315 1.466576,17.996658 
	C1.000000,17.555555 1.000000,17.111111 1.000000,16.333332 
z"/>
<path fill="#CE367B" opacity="1.000000" stroke="none" 
	d="
M532.241394,138.137222 
	C531.002441,139.483185 529.810608,140.876312 528.517822,142.168350 
	C422.914124,247.709290 317.305511,353.245300 211.660156,458.744476 
	C210.269577,460.133118 208.405350,461.047455 206.762177,462.183136 
	C206.675522,463.028687 206.588852,463.874237 206.502197,464.719757 
	C208.229660,465.760864 210.254730,466.503387 211.641754,467.886047 
	C269.465393,525.527832 327.240204,583.218567 385.002930,640.921448 
	C431.902405,687.772278 478.750488,734.674622 525.726562,781.448486 
	C528.991150,784.698975 529.564209,786.631531 525.952026,790.197083 
	C495.474976,820.279968 465.143982,850.511841 434.937073,880.866089 
	C431.626007,884.193359 429.849213,884.057983 426.631104,880.809326 
	C401.429474,855.368530 376.066833,830.086914 350.702728,804.807373 
	C329.005127,783.182068 307.176422,761.688049 285.515472,740.026184 
	C194.574875,649.081604 103.675743,558.095581 12.758500,467.127686 
	C11.581222,465.949738 10.365711,464.810028 9.265402,463.173889 
	C9.613513,462.491425 9.798608,462.239288 9.918037,461.938965 
	C11.388839,460.601166 12.917431,459.321198 14.322242,457.917358 
	C152.430435,319.901276 290.531891,181.878403 428.598938,43.821140 
	C430.349640,42.070553 431.653656,39.873226 433.518982,37.420620 
	C466.944092,70.790695 499.310852,103.104195 531.841064,136.066498 
	C532.083435,137.189285 532.162415,137.663254 532.241394,138.137222 
z"/>
<path fill="#79ADE1" opacity="1.000000" stroke="none" 
	d="
M812.357666,415.642334 
	C828.728088,432.035858 844.848328,448.179626 860.061035,463.414520 
	C827.487366,496.851257 795.119507,530.076721 762.388245,563.675232 
	C738.141541,539.257263 714.464294,515.412903 690.547180,491.326874 
	C676.216736,505.831146 662.459045,519.755737 648.169617,534.218506 
	C643.363586,529.481506 639.344971,525.608276 635.425964,521.636841 
	C629.810486,515.946350 624.150085,510.292023 618.745361,504.405121 
	C616.200256,501.632996 614.540955,501.748505 611.924072,504.411072 
	C598.723328,517.842285 585.314148,531.068420 572.051208,544.439087 
	C570.775452,545.725159 570.003845,547.511292 568.919556,549.186768 
	C552.519348,532.618347 537.241272,517.183655 521.882263,501.667145 
	C510.543243,513.162720 500.322449,523.524597 489.830688,534.161194 
	C475.028290,519.135437 461.287231,505.187012 447.653046,491.347076 
	C423.065125,516.082947 399.288635,540.002441 375.576752,563.856934 
	C341.514435,529.719421 308.654907,496.787354 275.710358,463.770050 
	C372.455780,366.954987 469.939056,269.401550 567.950989,171.319107 
	C649.562134,252.902512 730.834778,334.147522 812.357666,415.642334 
M569.760925,304.144409 
	C582.714661,317.084229 595.663879,330.028687 608.624634,342.961456 
	C613.219177,347.546051 613.802917,347.556366 618.234863,343.152863 
	C622.957886,338.460083 627.504761,333.576874 632.413879,329.088959 
	C635.963989,325.843475 635.824463,323.379120 632.454041,320.041992 
	C612.227966,300.016144 592.086792,279.903259 572.076843,259.661713 
	C569.121216,256.671906 567.420654,256.797150 564.531494,259.721466 
	C544.059387,280.442383 523.415710,300.993805 502.841644,321.614258 
	C501.827362,322.630829 500.953217,323.787231 500.686615,324.096924 
	C508.268219,331.904938 515.524109,339.377472 523.128723,347.209198 
	C537.613281,332.868378 552.248291,318.378601 567.672119,303.919769 
	C568.194824,303.856049 568.717468,303.792328 569.760925,304.144409 
z"/>
<path fill="#C5E4B6" opacity="1.000000" stroke="none" 
	d="
M620.606812,118.997574 
	C616.665771,123.677490 612.324890,128.352417 608.149109,133.170441 
	C606.810974,134.714386 605.909302,136.636658 604.764832,138.772583 
	C603.126465,138.175507 601.300476,137.304535 603.553589,135.149338 
	C609.144409,129.801437 614.700745,124.417511 620.606812,118.997574 
z"/>
<path fill="#C1E2B1" opacity="1.000000" stroke="none" 
	d="
M703.911377,883.545532 
	C706.304504,881.297363 708.805847,879.373230 711.287109,877.423645 
	C712.665955,876.340149 714.011475,875.214294 715.716675,874.084045 
	C713.017212,877.449890 710.035828,880.900635 706.852356,884.153625 
	C706.438171,884.576904 704.983765,883.982178 703.911377,883.545532 
z"/>
<path fill="#C5E4B6" opacity="1.000000" stroke="none" 
	d="
M637.597046,101.990135 
	C635.832031,104.255180 633.732178,106.572433 631.289062,108.915558 
	C633.051270,106.641739 635.156738,104.342041 637.597046,101.990135 
z"/>
<path fill="#E7ADCA" opacity="1.000000" stroke="none" 
	d="
M532.512939,138.078461 
	C532.162415,137.663254 532.083435,137.189285 532.008484,136.352859 
	C532.269897,136.666824 532.527222,137.343262 532.512939,138.078461 
z"/>
<path fill="#C1E2B1" opacity="1.000000" stroke="none" 
	d="
M607.323730,784.816101 
	C607.645081,785.266052 607.713013,785.823242 607.751221,786.801392 
	C607.504456,786.455994 607.287292,785.689697 607.323730,784.816101 
z"/>
<path fill="#E7ADCA" opacity="1.000000" stroke="none" 
	d="
M9.655762,461.998505 
	C9.798608,462.239288 9.613513,462.491425 9.181444,462.847717 
	C9.131252,462.686066 9.262370,462.372040 9.655762,461.998505 
z"/>
<path fill="#FDFEFF" opacity="1.000000" stroke="none" 
	d="
M566.883301,303.888855 
	C552.248291,318.378601 537.613281,332.868378 523.128723,347.209198 
	C515.524109,339.377472 508.268219,331.904938 500.686615,324.096924 
	C500.953217,323.787231 501.827362,322.630829 502.841644,321.614258 
	C523.415710,300.993805 544.059387,280.442383 564.531494,259.721466 
	C567.420654,256.797150 569.121216,256.671906 572.076843,259.661713 
	C592.086792,279.903259 612.227966,300.016144 632.454041,320.041992 
	C635.824463,323.379120 635.963989,325.843475 632.413879,329.088959 
	C627.504761,333.576874 622.957886,338.460083 618.234863,343.152863 
	C613.802917,347.556366 613.219177,347.546051 608.624634,342.961456 
	C595.663879,330.028687 582.714661,317.084229 569.402832,303.674194 
	C568.324219,303.432281 567.603760,303.660553 566.883301,303.888855 
z"/>
<path fill="#AECFEE" opacity="1.000000" stroke="none" 
	d="
M567.277710,303.904297 
	C567.603760,303.660553 568.324219,303.432281 569.142456,303.466278 
	C568.717468,303.792328 568.194824,303.856049 567.277710,303.904297 
z"/>
</svg>