<svg version="1.1" id="Layer_1" xmlns="http://www.w3.org/2000/svg" xmlns:xlink="http://www.w3.org/1999/xlink" x="0px" y="0px"
	 width="100%" viewBox="0 0 752 794" enable-background="new 0 0 752 794" xml:space="preserve">
<path fill="#FFFFFF" opacity="1.000000" stroke="none" 
	d="
M428.000000,795.000000 
	C285.333344,795.000000 143.166672,795.000000 1.000000,795.000000 
	C1.000000,530.333313 1.000000,265.666656 1.000000,1.000000 
	C251.666672,1.000000 502.333344,1.000000 753.000000,1.000000 
	C753.000000,265.666656 753.000000,530.333313 753.000000,795.000000 
	C644.833313,795.000000 536.666687,795.000000 428.000000,795.000000 
M255.259888,407.240143 
	C223.961594,375.945038 192.663315,344.649963 160.728790,312.718689 
	C226.102234,247.244598 290.996399,182.250565 355.313568,117.834381 
	C335.537659,98.194839 315.865234,78.658051 296.632263,59.557678 
	C212.459091,143.865936 127.748482,228.712494 43.752350,312.843414 
	C127.426247,396.565002 211.566299,480.752991 294.723999,563.958069 
	C313.931122,544.850037 333.583588,525.298950 353.427094,505.557800 
	C321.182526,473.263855 288.470978,440.502289 255.259888,407.240143 
M431.063538,475.563538 
	C421.988312,484.633698 413.020599,493.815582 403.775787,502.709442 
	C400.796326,505.575836 400.742645,507.304474 403.736298,510.255035 
	C421.063721,527.333130 438.288086,544.519226 455.307098,561.903931 
	C458.747192,565.417969 460.636963,565.114502 463.956238,561.788940 
	C545.419373,480.170380 626.988831,398.657867 708.533752,317.120880 
	C709.793030,315.861725 710.982361,314.532654 712.371033,313.059296 
	C711.076904,311.627838 710.137573,310.492279 709.099976,309.454987 
	C626.484070,226.867950 543.847046,144.302048 461.293793,61.652443 
	C458.401428,58.756714 456.700104,58.563774 453.733185,61.577709 
	C436.431976,79.153229 418.928802,96.529892 401.508331,113.988174 
	C400.478088,115.020660 399.574066,116.179085 398.030334,117.942497 
	C463.162567,183.166351 528.076904,248.171982 593.157532,313.344116 
	C539.195984,367.347809 485.379913,421.205841 431.063538,475.563538 
M402.568115,338.930389 
	C404.637634,336.255585 406.466644,336.705566 408.649139,339.017792 
	C413.865662,344.544373 419.269928,349.893799 424.762909,355.482117 
	C432.264526,348.016113 439.294312,341.390778 445.858368,334.332306 
	C449.209137,330.729218 451.284393,330.336487 454.932953,334.151489 
	C466.219208,345.952545 477.922760,357.354706 489.474060,368.901978 
	C490.853516,370.281006 492.292786,371.600220 492.906128,372.185455 
	C512.893555,352.251007 532.516968,332.679626 553.030579,312.220428 
	C551.957275,311.457977 550.112427,310.499481 548.708679,309.098877 
	C509.419952,269.899689 470.176544,230.655090 430.924072,191.419556 
	C414.539429,175.041931 398.023560,158.792221 381.861237,142.198105 
	C378.179626,138.418152 376.087189,138.634705 372.816406,142.359802 
	C368.646515,147.108841 363.933502,151.380981 359.454956,155.858994 
	C333.290710,182.020096 307.163483,208.218353 280.951782,234.331833 
	C255.689941,259.499023 230.342468,284.580231 205.027115,309.693726 
	C202.999542,311.705109 200.665146,313.267426 203.937088,316.502380 
	C221.951370,334.313171 239.821045,352.270660 257.677979,370.239716 
	C259.920135,372.495972 261.711304,372.636719 263.970856,370.328064 
	C275.507233,358.541290 287.197449,346.903870 298.649811,335.036621 
	C303.554413,329.954315 304.233124,329.726685 309.212708,334.719849 
	C314.979492,340.502350 320.730865,346.300262 326.516388,352.063965 
	C327.538361,353.082062 328.694763,353.965240 329.453217,354.620544 
	C334.547791,349.745178 339.598541,345.397827 344.042175,340.499725 
	C347.371033,336.830444 349.504639,336.462341 353.079651,340.364349 
	C360.589630,348.561127 368.637787,356.264862 377.027496,364.739166 
	C385.707367,355.963989 393.880005,347.701660 402.568115,338.930389 
M545.790710,694.657471 
	C548.108948,710.933105 555.068726,719.901306 569.335754,722.338867 
	C582.537598,724.594360 595.866150,723.227661 608.788879,719.564758 
	C610.146057,719.180115 611.570923,716.405518 611.666016,714.668640 
	C612.011108,708.364563 611.804016,702.030151 611.804016,695.707214 
	C611.804016,673.244141 611.721436,650.780518 611.877563,628.318481 
	C611.906250,624.190308 610.591370,622.409668 606.438721,622.940796 
	C605.456421,623.066467 604.424805,623.086853 603.449402,622.937073 
	C599.123779,622.273010 597.582153,623.870789 597.798889,628.390198 
	C598.169556,636.119629 597.901123,643.879700 597.901123,651.332092 
	C590.837036,650.569702 584.450195,649.181030 578.102783,649.342407 
	C565.352722,649.666626 554.135925,653.506104 548.445862,666.401489 
	C544.562195,675.203003 544.542542,684.464661 545.790710,694.657471 
M668.409058,711.971558 
	C662.918945,710.861023 657.134644,710.492004 652.010315,708.459351 
	C645.003601,705.679993 641.172974,697.426636 642.895935,690.712708 
	C655.558655,690.712708 668.346069,690.712708 681.133484,690.712708 
	C694.327454,690.712708 694.577576,690.442749 693.758911,677.085388 
	C692.880554,662.753662 685.252014,652.837830 672.602844,650.372620 
	C667.759766,649.428772 662.655945,648.988647 657.751160,649.364807 
	C646.822876,650.202820 637.213623,653.973877 632.067871,664.629822 
	C627.256348,674.593811 627.089478,685.166077 628.809753,695.858276 
	C631.168884,710.520630 639.499390,720.257812 654.278015,721.891541 
	C665.001404,723.076965 676.030823,721.590088 686.913696,721.080444 
	C687.952148,721.031799 689.657898,719.549683 689.781250,718.572449 
	C690.159851,715.573608 689.919128,712.496521 689.919128,709.423340 
	C682.419067,710.333923 675.861877,711.130005 668.409058,711.971558 
M326.843506,653.233032 
	C319.447693,657.166992 314.674744,663.440735 313.357910,671.462830 
	C312.130798,678.938538 311.678131,686.722595 312.235443,694.271179 
	C313.300934,708.702759 322.140625,719.271179 336.370270,721.558899 
	C346.212769,723.141418 356.512512,722.361633 366.576721,721.922119 
	C373.878113,721.603210 374.095703,720.665894 373.906097,713.256958 
	C373.821503,709.952698 372.954132,709.278503 369.405487,709.658936 
	C360.729828,710.589111 351.903137,711.491272 343.246338,710.874390 
	C331.885773,710.064697 324.393494,700.401611 326.789429,690.712219 
	C328.453766,690.712219 330.249420,690.712219 332.045105,690.712219 
	C345.367218,690.712097 358.690674,690.606445 372.010498,690.780884 
	C375.655731,690.828613 377.204865,689.720093 377.009827,685.975342 
	C376.786835,681.693970 377.296295,677.348450 376.795105,673.112732 
	C375.613708,663.129150 370.767120,655.343994 361.053955,651.837341 
	C349.867889,647.798950 338.555725,648.023804 326.843506,653.233032 
M476.480103,653.882324 
	C473.974792,656.018921 470.965485,657.780762 469.050232,660.356201 
	C460.101501,672.389404 460.415527,686.029175 463.173431,699.831665 
	C465.086304,709.404846 470.482147,716.654541 479.754028,720.189758 
	C491.197174,724.552856 502.881866,724.500854 514.338074,720.137024 
	C522.883667,716.881775 528.068115,710.226440 530.360901,701.603271 
	C533.006592,691.652893 533.335083,681.356689 530.265808,671.568298 
	C528.605408,666.273010 525.560181,660.415771 521.341064,657.102478 
	C507.725800,646.410400 492.500519,647.132935 476.480103,653.882324 
M193.528702,716.997192 
	C204.858383,725.160461 226.886902,725.491821 238.617752,717.805908 
	C244.357941,714.044922 247.795944,708.679932 249.660324,702.304565 
	C252.462997,692.720642 252.660126,683.001648 250.435516,673.238220 
	C247.446686,660.120850 239.288254,652.365234 226.095703,650.168701 
	C221.544647,649.411011 216.829849,649.106140 212.222321,649.314087 
	C196.252762,650.034912 185.711304,658.773621 182.396423,673.794495 
	C180.243713,683.549194 180.061630,693.459900 183.734406,702.754272 
	C185.720306,707.779785 189.824280,711.968323 193.528702,716.997192 
M100.929955,649.595337 
	C93.645164,649.831909 86.245758,649.341064 79.101089,650.466858 
	C66.825714,652.401306 60.962029,659.931274 61.122845,671.818726 
	C61.288132,684.036682 66.866829,690.247986 79.770378,692.306519 
	C82.707878,692.775085 85.731346,692.712585 88.716370,692.873596 
	C92.531662,693.079407 96.397514,692.950500 100.150620,693.542542 
	C104.183189,694.178650 106.573959,696.966797 107.060493,701.054077 
	C107.557877,705.232605 105.689316,708.710510 101.777550,709.622375 
	C96.377296,710.881042 90.681984,711.763245 85.181778,711.478516 
	C78.315025,711.123047 71.518158,709.417419 63.942631,708.171570 
	C63.942631,710.259705 64.173683,712.069397 63.898357,713.798340 
	C63.138580,718.569519 64.990044,721.060364 69.850197,721.318054 
	C79.628105,721.836365 89.422043,722.998352 99.175301,722.716370 
	C106.141472,722.515076 113.198570,720.363831 117.635674,714.198792 
	C122.883766,706.906921 122.624313,698.751282 119.119247,690.961426 
	C115.673012,683.302307 108.534790,680.771118 100.698517,680.174011 
	C94.904999,679.732544 89.040260,680.019714 83.285591,679.329346 
	C76.927460,678.566589 74.833733,676.131104 74.783829,671.020874 
	C74.732468,665.760071 77.209763,663.094299 83.338570,661.815796 
	C93.385078,659.720093 103.180969,661.438660 112.969078,663.653992 
	C114.907806,664.092834 117.503517,666.488525 118.689163,662.623901 
	C120.091743,658.052124 118.569038,652.748779 115.551834,652.123718 
	C111.008362,651.182373 106.396210,650.572632 100.929955,649.595337 
M396.605957,662.190735 
	C391.129517,669.917542 389.966736,678.737000 390.298431,687.860596 
	C391.004944,707.294067 399.760162,719.052307 417.952881,722.034241 
	C427.430908,723.587769 437.428802,722.068420 447.181915,721.684204 
	C448.111877,721.647522 449.588104,719.890076 449.740387,718.784058 
	C450.114136,716.069824 449.862518,713.269348 449.862518,710.004395 
	C443.556671,710.643005 438.001526,711.451233 432.420258,711.722900 
	C418.153320,712.417358 408.001129,707.984619 405.197083,693.083618 
	C404.469269,689.215759 404.718323,685.125000 404.832489,681.145630 
	C405.119995,671.122192 410.636566,663.575073 420.542511,662.148376 
	C428.295532,661.031921 436.360748,662.010803 444.284027,662.196045 
	C446.451141,662.246704 448.996429,664.005066 449.835938,660.306213 
	C451.050995,654.952515 449.859680,651.174500 446.216400,650.821899 
	C438.312225,650.056824 430.302216,649.023254 422.436768,649.566406 
	C412.680756,650.240173 403.518768,653.413513 396.605957,662.190735 
M137.235901,697.427734 
	C137.513031,701.230408 137.615524,705.055542 138.102280,708.831177 
	C139.248245,717.720215 144.965225,722.836060 153.830063,723.062317 
	C157.322220,723.151489 160.836166,722.870361 164.307846,723.153931 
	C168.438431,723.491394 169.722000,721.935303 169.839066,717.791626 
	C169.972260,713.075989 168.336761,711.818970 163.799713,711.925598 
	C154.172318,712.151917 151.784943,709.532227 151.762039,699.820496 
	C151.734970,688.339355 151.859329,676.856506 151.691238,665.377747 
	C151.641205,661.960999 152.614120,660.504150 156.194916,660.781921 
	C159.502579,661.038452 162.846344,660.823730 166.174210,660.827393 
	C170.926987,660.832642 169.553192,657.244873 169.652451,654.691101 
	C169.751678,652.138123 170.428085,649.043213 166.085098,649.147522 
	C161.761414,649.251465 157.399338,649.472290 153.124680,649.001221 
	C151.565964,648.829529 149.924377,647.023804 148.855225,645.570312 
	C148.039001,644.460632 147.945465,642.748047 147.738953,641.274475 
	C147.106445,636.760986 143.826981,637.141663 140.588379,637.196655 
	C136.628006,637.263855 137.250916,640.112915 137.248032,642.534729 
	C137.226562,660.505310 137.236404,678.475952 137.235901,697.427734 
M284.349457,668.063232 
	C288.470123,665.996704 292.497345,662.473694 296.733124,662.202026 
	C303.228729,661.785400 303.105377,658.561584 303.210052,653.853760 
	C303.307556,649.468872 301.418091,648.309448 297.850128,649.493469 
	C291.949524,651.451660 286.188507,653.830444 280.063812,656.147339 
	C279.909424,655.793640 279.133057,654.786011 279.065948,653.733215 
	C278.697357,647.950989 274.476318,649.119873 270.975891,649.201843 
	C266.329010,649.310669 268.146698,653.009766 268.131409,655.201050 
	C267.993988,674.861877 267.986542,694.524475 268.077545,714.185852 
	C268.124634,724.358887 266.420380,722.778748 277.109741,723.191650 
	C281.253021,723.351746 282.120544,721.823914 282.071198,718.026917 
	C281.882935,703.532898 281.927399,689.034363 282.075592,674.539368 
	C282.095856,672.558655 283.194092,670.589050 284.349457,668.063232 
z"/>
<path fill="#CE377C" opacity="1.000000" stroke="none" 
	d="
M255.509674,407.490417 
	C288.470978,440.502289 321.182526,473.263855 353.427094,505.557800 
	C333.583588,525.298950 313.931122,544.850037 294.723999,563.958069 
	C211.566299,480.752991 127.426247,396.565002 43.752350,312.843414 
	C127.748482,228.712494 212.459091,143.865936 296.632263,59.557678 
	C315.865234,78.658051 335.537659,98.194839 355.313568,117.834381 
	C290.996399,182.250565 226.102234,247.244598 160.728790,312.718689 
	C192.663315,344.649963 223.961594,375.945038 255.509674,407.490417 
z"/>
<path fill="#8DC76C" opacity="1.000000" stroke="none" 
	d="
M431.313690,475.313721 
	C485.379913,421.205841 539.195984,367.347809 593.157532,313.344116 
	C528.076904,248.171982 463.162567,183.166351 398.030334,117.942497 
	C399.574066,116.179085 400.478088,115.020660 401.508331,113.988174 
	C418.928802,96.529892 436.431976,79.153229 453.733185,61.577709 
	C456.700104,58.563774 458.401428,58.756714 461.293793,61.652443 
	C543.847046,144.302048 626.484070,226.867950 709.099976,309.454987 
	C710.137573,310.492279 711.076904,311.627838 712.371033,313.059296 
	C710.982361,314.532654 709.793030,315.861725 708.533752,317.120880 
	C626.988831,398.657867 545.419373,480.170380 463.956238,561.788940 
	C460.636963,565.114502 458.747192,565.417969 455.307098,561.903931 
	C438.288086,544.519226 421.063721,527.333130 403.736298,510.255035 
	C400.742645,507.304474 400.796326,505.575836 403.775787,502.709442 
	C413.020599,493.815582 421.988312,484.633698 431.313690,475.313721 
z"/>
<path fill="#7AAEE1" opacity="1.000000" stroke="none" 
	d="
M402.310364,339.184875 
	C393.880005,347.701660 385.707367,355.963989 377.027496,364.739166 
	C368.637787,356.264862 360.589630,348.561127 353.079651,340.364349 
	C349.504639,336.462341 347.371033,336.830444 344.042175,340.499725 
	C339.598541,345.397827 334.547791,349.745178 329.453217,354.620544 
	C328.694763,353.965240 327.538361,353.082062 326.516388,352.063965 
	C320.730865,346.300262 314.979492,340.502350 309.212708,334.719849 
	C304.233124,329.726685 303.554413,329.954315 298.649811,335.036621 
	C287.197449,346.903870 275.507233,358.541290 263.970856,370.328064 
	C261.711304,372.636719 259.920135,372.495972 257.677979,370.239716 
	C239.821045,352.270660 221.951370,334.313171 203.937088,316.502380 
	C200.665146,313.267426 202.999542,311.705109 205.027115,309.693726 
	C230.342468,284.580231 255.689941,259.499023 280.951782,234.331833 
	C307.163483,208.218353 333.290710,182.020096 359.454956,155.858994 
	C363.933502,151.380981 368.646515,147.108841 372.816406,142.359802 
	C376.087189,138.634705 378.179626,138.418152 381.861237,142.198105 
	C398.023560,158.792221 414.539429,175.041931 430.924072,191.419556 
	C470.176544,230.655090 509.419952,269.899689 548.708679,309.098877 
	C550.112427,310.499481 551.957275,311.457977 553.030579,312.220428 
	C532.516968,332.679626 512.893555,352.251007 492.906128,372.185455 
	C492.292786,371.600220 490.853516,370.281006 489.474060,368.901978 
	C477.922760,357.354706 466.219208,345.952545 454.932953,334.151489 
	C451.284393,330.336487 449.209137,330.729218 445.858368,334.332306 
	C439.294312,341.390778 432.264526,348.016113 424.762909,355.482117 
	C419.269928,349.893799 413.865662,344.544373 408.649139,339.017792 
	C406.466644,336.705566 404.637634,336.255585 402.310364,339.184875 
M411.033691,222.468246 
	C399.886047,211.293762 388.738403,200.119293 377.378815,188.732346 
	C375.742981,190.237137 374.493378,191.290985 373.352173,192.451431 
	C363.543701,202.425018 353.781067,212.443787 343.951691,222.396683 
	C336.170715,230.275436 336.140778,230.239288 344.069794,237.709381 
	C345.160828,238.737259 346.306244,239.733810 347.244110,240.892517 
	C349.328461,243.467712 351.093018,243.238297 353.352264,240.913193 
	C360.085693,233.983566 367.112885,227.337204 373.777496,220.344009 
	C376.481445,217.506760 378.272217,217.386948 381.031281,220.288437 
	C387.687988,227.288864 394.586426,234.065140 401.555908,240.756271 
	C402.587738,241.746887 405.312073,242.666916 405.933929,242.119812 
	C410.238159,238.333267 414.192841,234.149368 419.013580,229.341248 
	C416.094208,226.853745 413.814514,224.911270 411.033691,222.468246 
z"/>
<path fill="#7DB0E2" opacity="1.000000" stroke="none" 
	d="
M545.664429,694.233643 
	C544.542542,684.464661 544.562195,675.203003 548.445862,666.401489 
	C554.135925,653.506104 565.352722,649.666626 578.102783,649.342407 
	C584.450195,649.181030 590.837036,650.569702 597.901123,651.332092 
	C597.901123,643.879700 598.169556,636.119629 597.798889,628.390198 
	C597.582153,623.870789 599.123779,622.273010 603.449402,622.937073 
	C604.424805,623.086853 605.456421,623.066467 606.438721,622.940796 
	C610.591370,622.409668 611.906250,624.190308 611.877563,628.318481 
	C611.721436,650.780518 611.804016,673.244141 611.804016,695.707214 
	C611.804016,702.030151 612.011108,708.364563 611.666016,714.668640 
	C611.570923,716.405518 610.146057,719.180115 608.788879,719.564758 
	C595.866150,723.227661 582.537598,724.594360 569.335754,722.338867 
	C555.068726,719.901306 548.108948,710.933105 545.664429,694.233643 
M560.675476,697.575500 
	C563.285828,705.893188 568.653992,711.018066 577.616272,711.132812 
	C583.017395,711.201965 588.431396,710.425720 593.836243,709.988403 
	C596.845642,709.744934 598.032532,708.201050 597.973572,705.052917 
	C597.799072,695.745789 597.911865,686.433289 597.911987,677.122925 
	C597.912170,663.617126 597.958130,663.261719 584.486328,661.511780 
	C571.982117,659.887390 558.831238,665.018311 559.033813,682.523071 
	C559.089050,687.294983 559.905396,692.058167 560.675476,697.575500 
z"/>
<path fill="#7EB0E2" opacity="1.000000" stroke="none" 
	d="
M668.856934,711.948853 
	C675.861877,711.130005 682.419067,710.333923 689.919128,709.423340 
	C689.919128,712.496521 690.159851,715.573608 689.781250,718.572449 
	C689.657898,719.549683 687.952148,721.031799 686.913696,721.080444 
	C676.030823,721.590088 665.001404,723.076965 654.278015,721.891541 
	C639.499390,720.257812 631.168884,710.520630 628.809753,695.858276 
	C627.089478,685.166077 627.256348,674.593811 632.067871,664.629822 
	C637.213623,653.973877 646.822876,650.202820 657.751160,649.364807 
	C662.655945,648.988647 667.759766,649.428772 672.602844,650.372620 
	C685.252014,652.837830 692.880554,662.753662 693.758911,677.085388 
	C694.577576,690.442749 694.327454,690.712708 681.133484,690.712708 
	C668.346069,690.712708 655.558655,690.712708 642.895935,690.712708 
	C641.172974,697.426636 645.003601,705.679993 652.010315,708.459351 
	C657.134644,710.492004 662.918945,710.861023 668.856934,711.948853 
M656.665344,661.044189 
	C646.793030,663.308594 641.643921,669.574951 642.493958,678.605957 
	C654.826843,678.605957 667.185181,678.605957 680.057007,678.605957 
	C679.823242,676.436646 679.855774,674.611267 679.405579,672.913940 
	C676.868103,663.346924 668.919250,659.058472 656.665344,661.044189 
z"/>
<path fill="#7EB0E2" opacity="1.000000" stroke="none" 
	d="
M327.185791,653.079834 
	C338.555725,648.023804 349.867889,647.798950 361.053955,651.837341 
	C370.767120,655.343994 375.613708,663.129150 376.795105,673.112732 
	C377.296295,677.348450 376.786835,681.693970 377.009827,685.975342 
	C377.204865,689.720093 375.655731,690.828613 372.010498,690.780884 
	C358.690674,690.606445 345.367218,690.712097 332.045105,690.712219 
	C330.249420,690.712219 328.453766,690.712219 326.789429,690.712219 
	C324.393494,700.401611 331.885773,710.064697 343.246338,710.874390 
	C351.903137,711.491272 360.729828,710.589111 369.405487,709.658936 
	C372.954132,709.278503 373.821503,709.952698 373.906097,713.256958 
	C374.095703,720.665894 373.878113,721.603210 366.576721,721.922119 
	C356.512512,722.361633 346.212769,723.141418 336.370270,721.558899 
	C322.140625,719.271179 313.300934,708.702759 312.235443,694.271179 
	C311.678131,686.722595 312.130798,678.938538 313.357910,671.462830 
	C314.674744,663.440735 319.447693,657.166992 327.185791,653.079834 
M338.513824,678.968750 
	C346.796448,678.968750 355.079071,678.968750 363.258942,678.968750 
	C364.170044,672.328979 361.301880,666.202942 356.216797,663.103455 
	C349.867310,659.233154 338.512604,659.651855 332.545319,664.322693 
	C328.046448,667.844238 325.578827,672.485413 326.192627,678.968689 
	C330.254944,678.968689 333.888458,678.968689 338.513824,678.968750 
z"/>
<path fill="#7EB1E2" opacity="1.000000" stroke="none" 
	d="
M476.810425,653.707642 
	C492.500519,647.132935 507.725800,646.410400 521.341064,657.102478 
	C525.560181,660.415771 528.605408,666.273010 530.265808,671.568298 
	C533.335083,681.356689 533.006592,691.652893 530.360901,701.603271 
	C528.068115,710.226440 522.883667,716.881775 514.338074,720.137024 
	C502.881866,724.500854 491.197174,724.552856 479.754028,720.189758 
	C470.482147,716.654541 465.086304,709.404846 463.173431,699.831665 
	C460.415527,686.029175 460.101501,672.389404 469.050232,660.356201 
	C470.965485,657.780762 473.974792,656.018921 476.810425,653.707642 
M485.395599,663.653564 
	C482.998932,666.334167 479.719696,668.635681 478.374359,671.767822 
	C474.645355,680.449585 474.691772,689.658691 477.442749,698.621765 
	C480.167297,707.498474 487.589691,712.176514 497.405396,711.970825 
	C507.307281,711.763306 514.289673,706.891174 516.585571,697.698669 
	C517.733398,693.102600 518.026123,688.192017 518.015137,683.425293 
	C517.972839,664.996887 502.979767,655.626221 485.395599,663.653564 
z"/>
<path fill="#7FB1E2" opacity="1.000000" stroke="none" 
	d="
M193.250717,716.765869 
	C189.824280,711.968323 185.720306,707.779785 183.734406,702.754272 
	C180.061630,693.459900 180.243713,683.549194 182.396423,673.794495 
	C185.711304,658.773621 196.252762,650.034912 212.222321,649.314087 
	C216.829849,649.106140 221.544647,649.411011 226.095703,650.168701 
	C239.288254,652.365234 247.446686,660.120850 250.435516,673.238220 
	C252.660126,683.001648 252.462997,692.720642 249.660324,702.304565 
	C247.795944,708.679932 244.357941,714.044922 238.617752,717.805908 
	C226.886902,725.491821 204.858383,725.160461 193.250717,716.765869 
M204.158279,708.555908 
	C217.359741,715.461792 231.201996,711.592163 235.682159,699.506897 
	C238.909424,690.801392 238.920914,681.876221 235.845215,673.105164 
	C233.429352,666.215759 228.345657,662.083435 221.142532,661.169556 
	C213.292450,660.173584 205.621155,660.829773 200.221161,667.671814 
	C192.288086,677.723450 193.387390,701.382080 204.158279,708.555908 
z"/>
<path fill="#7FB1E2" opacity="1.000000" stroke="none" 
	d="
M101.371605,649.708618 
	C106.396210,650.572632 111.008362,651.182373 115.551834,652.123718 
	C118.569038,652.748779 120.091743,658.052124 118.689163,662.623901 
	C117.503517,666.488525 114.907806,664.092834 112.969078,663.653992 
	C103.180969,661.438660 93.385078,659.720093 83.338570,661.815796 
	C77.209763,663.094299 74.732468,665.760071 74.783829,671.020874 
	C74.833733,676.131104 76.927460,678.566589 83.285591,679.329346 
	C89.040260,680.019714 94.904999,679.732544 100.698517,680.174011 
	C108.534790,680.771118 115.673012,683.302307 119.119247,690.961426 
	C122.624313,698.751282 122.883766,706.906921 117.635674,714.198792 
	C113.198570,720.363831 106.141472,722.515076 99.175301,722.716370 
	C89.422043,722.998352 79.628105,721.836365 69.850197,721.318054 
	C64.990044,721.060364 63.138580,718.569519 63.898357,713.798340 
	C64.173683,712.069397 63.942631,710.259705 63.942631,708.171570 
	C71.518158,709.417419 78.315025,711.123047 85.181778,711.478516 
	C90.681984,711.763245 96.377296,710.881042 101.777550,709.622375 
	C105.689316,708.710510 107.557877,705.232605 107.060493,701.054077 
	C106.573959,696.966797 104.183189,694.178650 100.150620,693.542542 
	C96.397514,692.950500 92.531662,693.079407 88.716370,692.873596 
	C85.731346,692.712585 82.707878,692.775085 79.770378,692.306519 
	C66.866829,690.247986 61.288132,684.036682 61.122845,671.818726 
	C60.962029,659.931274 66.825714,652.401306 79.101089,650.466858 
	C86.245758,649.341064 93.645164,649.831909 101.371605,649.708618 
z"/>
<path fill="#7FB1E2" opacity="1.000000" stroke="none" 
	d="
M396.836029,661.913208 
	C403.518768,653.413513 412.680756,650.240173 422.436768,649.566406 
	C430.302216,649.023254 438.312225,650.056824 446.216400,650.821899 
	C449.859680,651.174500 451.050995,654.952515 449.835938,660.306213 
	C448.996429,664.005066 446.451141,662.246704 444.284027,662.196045 
	C436.360748,662.010803 428.295532,661.031921 420.542511,662.148376 
	C410.636566,663.575073 405.119995,671.122192 404.832489,681.145630 
	C404.718323,685.125000 404.469269,689.215759 405.197083,693.083618 
	C408.001129,707.984619 418.153320,712.417358 432.420258,711.722900 
	C438.001526,711.451233 443.556671,710.643005 449.862518,710.004395 
	C449.862518,713.269348 450.114136,716.069824 449.740387,718.784058 
	C449.588104,719.890076 448.111877,721.647522 447.181915,721.684204 
	C437.428802,722.068420 427.430908,723.587769 417.952881,722.034241 
	C399.760162,719.052307 391.004944,707.294067 390.298431,687.860596 
	C389.966736,678.737000 391.129517,669.917542 396.836029,661.913208 
z"/>
<path fill="#7EB0E2" opacity="1.000000" stroke="none" 
	d="
M137.236160,696.937134 
	C137.236404,678.475952 137.226562,660.505310 137.248032,642.534729 
	C137.250916,640.112915 136.628006,637.263855 140.588379,637.196655 
	C143.826981,637.141663 147.106445,636.760986 147.738953,641.274475 
	C147.945465,642.748047 148.039001,644.460632 148.855225,645.570312 
	C149.924377,647.023804 151.565964,648.829529 153.124680,649.001221 
	C157.399338,649.472290 161.761414,649.251465 166.085098,649.147522 
	C170.428085,649.043213 169.751678,652.138123 169.652451,654.691101 
	C169.553192,657.244873 170.926987,660.832642 166.174210,660.827393 
	C162.846344,660.823730 159.502579,661.038452 156.194916,660.781921 
	C152.614120,660.504150 151.641205,661.960999 151.691238,665.377747 
	C151.859329,676.856506 151.734970,688.339355 151.762039,699.820496 
	C151.784943,709.532227 154.172318,712.151917 163.799713,711.925598 
	C168.336761,711.818970 169.972260,713.075989 169.839066,717.791626 
	C169.722000,721.935303 168.438431,723.491394 164.307846,723.153931 
	C160.836166,722.870361 157.322220,723.151489 153.830063,723.062317 
	C144.965225,722.836060 139.248245,717.720215 138.102280,708.831177 
	C137.615524,705.055542 137.513031,701.230408 137.236160,696.937134 
z"/>
<path fill="#80B1E3" opacity="1.000000" stroke="none" 
	d="
M284.071350,668.338745 
	C283.194092,670.589050 282.095856,672.558655 282.075592,674.539368 
	C281.927399,689.034363 281.882935,703.532898 282.071198,718.026917 
	C282.120544,721.823914 281.253021,723.351746 277.109741,723.191650 
	C266.420380,722.778748 268.124634,724.358887 268.077545,714.185852 
	C267.986542,694.524475 267.993988,674.861877 268.131409,655.201050 
	C268.146698,653.009766 266.329010,649.310669 270.975891,649.201843 
	C274.476318,649.119873 278.697357,647.950989 279.065948,653.733215 
	C279.133057,654.786011 279.909424,655.793640 280.063812,656.147339 
	C286.188507,653.830444 291.949524,651.451660 297.850128,649.493469 
	C301.418091,648.309448 303.307556,649.468872 303.210052,653.853760 
	C303.105377,658.561584 303.228729,661.785400 296.733124,662.202026 
	C292.497345,662.473694 288.470123,665.996704 284.071350,668.338745 
z"/>
<path fill="#FBFDFE" opacity="1.000000" stroke="none" 
	d="
M411.284241,222.718521 
	C413.814514,224.911270 416.094208,226.853745 419.013580,229.341248 
	C414.192841,234.149368 410.238159,238.333267 405.933929,242.119812 
	C405.312073,242.666916 402.587738,241.746887 401.555908,240.756271 
	C394.586426,234.065140 387.687988,227.288864 381.031281,220.288437 
	C378.272217,217.386948 376.481445,217.506760 373.777496,220.344009 
	C367.112885,227.337204 360.085693,233.983566 353.352264,240.913193 
	C351.093018,243.238297 349.328461,243.467712 347.244110,240.892517 
	C346.306244,239.733810 345.160828,238.737259 344.069794,237.709381 
	C336.140778,230.239288 336.170715,230.275436 343.951691,222.396683 
	C353.781067,212.443787 363.543701,202.425018 373.352173,192.451431 
	C374.493378,191.290985 375.742981,190.237137 377.378815,188.732346 
	C388.738403,200.119293 399.886047,211.293762 411.284241,222.718521 
z"/>
<path fill="#FCFDFE" opacity="1.000000" stroke="none" 
	d="
M560.523987,697.200439 
	C559.905396,692.058167 559.089050,687.294983 559.033813,682.523071 
	C558.831238,665.018311 571.982117,659.887390 584.486328,661.511780 
	C597.958130,663.261719 597.912170,663.617126 597.911987,677.122925 
	C597.911865,686.433289 597.799072,695.745789 597.973572,705.052917 
	C598.032532,708.201050 596.845642,709.744934 593.836243,709.988403 
	C588.431396,710.425720 583.017395,711.201965 577.616272,711.132812 
	C568.653992,711.018066 563.285828,705.893188 560.523987,697.200439 
z"/>
<path fill="#F9FCFE" opacity="1.000000" stroke="none" 
	d="
M657.069702,661.003906 
	C668.919250,659.058472 676.868103,663.346924 679.405579,672.913940 
	C679.855774,674.611267 679.823242,676.436646 680.057007,678.605957 
	C667.185181,678.605957 654.826843,678.605957 642.493958,678.605957 
	C641.643921,669.574951 646.793030,663.308594 657.069702,661.003906 
z"/>
<path fill="#F9FCFE" opacity="1.000000" stroke="none" 
	d="
M338.017883,678.968750 
	C333.888458,678.968689 330.254944,678.968689 326.192627,678.968689 
	C325.578827,672.485413 328.046448,667.844238 332.545319,664.322693 
	C338.512604,659.651855 349.867310,659.233154 356.216797,663.103455 
	C361.301880,666.202942 364.170044,672.328979 363.258942,678.968750 
	C355.079071,678.968750 346.796448,678.968750 338.017883,678.968750 
z"/>
<path fill="#FCFDFE" opacity="1.000000" stroke="none" 
	d="
M485.720581,663.456787 
	C502.979767,655.626221 517.972839,664.996887 518.015137,683.425293 
	C518.026123,688.192017 517.733398,693.102600 516.585571,697.698669 
	C514.289673,706.891174 507.307281,711.763306 497.405396,711.970825 
	C487.589691,712.176514 480.167297,707.498474 477.442749,698.621765 
	C474.691772,689.658691 474.645355,680.449585 478.374359,671.767822 
	C479.719696,668.635681 482.998932,666.334167 485.720581,663.456787 
z"/>
<path fill="#FCFDFE" opacity="1.000000" stroke="none" 
	d="
M203.860352,708.331055 
	C193.387390,701.382080 192.288086,677.723450 200.221161,667.671814 
	C205.621155,660.829773 213.292450,660.173584 221.142532,661.169556 
	C228.345657,662.083435 233.429352,666.215759 235.845215,673.105164 
	C238.920914,681.876221 238.909424,690.801392 235.682159,699.506897 
	C231.201996,711.592163 217.359741,715.461792 203.860352,708.331055 
z"/>
</svg>